<?xml version="1.0" encoding="utf-8"?>
<!-- Generator: Adobe Illustrator 22.0.1, SVG Export Plug-In . SVG Version: 6.00 Build 0)  -->
<svg version="1.1" id="Warstwa_1" xmlns="http://www.w3.org/2000/svg" xmlns:xlink="http://www.w3.org/1999/xlink" x="0px" y="0px"
	 viewBox="0 0 150 61" style="enable-background:new 0 0 150 61;" xml:space="preserve">
<style type="text/css">
	.st0{fill:#FFFFFF;}
</style>
<title>lubeer_logo copy</title>
<desc>Created with Sketch.</desc>
<g id="Boostrap3-Grid">
	<g id="Tablet-_x28_-_x3E_970px_x29_" transform="translate(-626.000000, -3.000000)">
		<g id="lubeer_logo-copy" transform="translate(626.000000, 3.000000)">
			<polygon id="Fill-1" class="st0" points="22.3,60.2 22.3,56.3 4.5,56.3 4.5,16.8 0.2,16.8 0.2,60.2 			"/>
			<path id="Fill-2" class="st0" d="M23.6,49.8c0,6.4,4,10.9,10.5,10.9c6.4,0,10.6-4.4,10.6-11.1V16.8h-4.3v31.5
				c0,4.2-0.9,8.3-6.3,8.3c-5.4,0-6.2-4-6.2-8.3V16.8h-4.3V49.8z"/>
			<path id="Fill-3" class="st0" d="M48.1,56.3v3.9H62c6,0,10.9-4,10.9-13c0-5.2-1.7-8.9-6.6-11.1c3.2-1.8,4.6-4.8,4.6-8.4
				c0-7-4.9-10.9-9.6-10.9H48.1v3.9h3.5v35.6H48.1z M55.9,56.3V38.5h4.7c4.5,0,7.7,2.1,7.7,8.6c0,6.3-2.7,9.2-6.5,9.2H55.9z
				 M55.9,34.6V20.7h2.5c5.2,0,7.9,1.7,7.9,7c0,4.6-2.1,6.9-6.5,6.9H55.9z"/>
			<path id="Fill-4" class="st0" d="M136.3,20.7c4.7,0,7.4,2.3,7.4,7.6c0,5.5-2.3,8.5-6.3,8.6l-6.1,0.1V20.7H136.3z M131.3,40.8h6.5
				c6,0,10.5-4.5,10.5-12.5c0-7.4-4.3-11.5-11.9-11.5H127v43.4h4.3V40.8z"/>
			<path id="Fill-5" class="st0" d="M149.8,59.1L142.1,43c-1.3,0.6-2.7,0.9-4.2,0.9h-0.2l8.2,17.1L149.8,59.1z"/>
			<polygon id="Fill-6" class="st0" points="105.6,47.5 105.6,38.9 105.6,35 105.6,25.4 105.6,20.7 122.3,20.7 122.3,16.8 
				101.2,16.8 101.2,60.2 122.3,60.2 122.3,56.3 105.6,56.3 			"/>
			<path id="Fill-7" class="st0" d="M108.2,6.1c0.2,0,0.5,0.1,0.7,0.2l0.7,0.2l0.4-0.6c0.8-1.1,1.9-2.1,3.1-2.7l0,0
				c1.2-0.6,2.6-1,4-1c1.4,0,2.8,0.4,4,1l0,0c1.2,0.7,2.3,1.6,3.1,2.7l0.4,0.6l0.7-0.2c0.2-0.1,0.5-0.1,0.7-0.2
				c0.2,0,0.5-0.1,0.7-0.1c1.3,0,2.5,0.5,3.4,1.4c0.9,0.9,1.4,2.1,1.4,3.4c0,0.9-0.2,1.7-0.6,2.4h2.1c0.3-0.8,0.4-1.6,0.4-2.4
				c0-1.9-0.8-3.6-2-4.8c-1.2-1.2-2.9-2-4.8-2c-0.3,0-0.7,0-1,0.1c-0.1,0-0.2,0-0.3,0.1c-0.9-1.2-2.1-2.1-3.4-2.8v0
				c-1.5-0.8-3.1-1.2-4.9-1.2c-1.8,0-3.4,0.4-4.9,1.2v0c-1.3,0.7-2.5,1.7-3.4,2.8c-0.1,0-0.2,0-0.3-0.1c-0.3-0.1-0.7-0.1-1-0.1
				c-1.9,0-3.6,0.8-4.8,2c-1.2,1.2-2,2.9-2,4.8c0,0.9,0.2,1.7,0.4,2.4h2.1c-0.4-0.7-0.6-1.5-0.6-2.4c0-1.3,0.5-2.6,1.4-3.4
				c0.9-0.9,2.1-1.4,3.4-1.4C107.7,6,108,6,108.2,6.1"/>
			<polygon id="Fill-8" class="st0" points="93.9,35 84,35 84,38.9 93.9,38.9 			"/>
			<polygon id="Fill-9" class="st0" points="80.1,35 80.1,30.6 80.1,20.7 96.8,20.7 96.8,16.8 75.8,16.8 75.8,60.2 96.8,60.2 
				96.8,56.3 80.1,56.3 80.1,43.4 80.1,38.9 			"/>
			<polygon id="Fill-10" class="st0" points="119.3,35 109.4,35 109.4,38.9 119.3,38.9 			"/>
		</g>
	</g>
</g>
</svg>
