<?xml version="1.0" encoding="UTF-8"?>
<svg width="150px" height="61px" viewBox="0 0 150 61" version="1.1" xmlns="http://www.w3.org/2000/svg" xmlns:xlink="http://www.w3.org/1999/xlink">
  <!-- Generator: Sketch 43.1 (39012) - http://www.bohemiancoding.com/sketch -->
  <title>lubeer_logo copy</title>
  <desc>Created with Sketch.</desc>
  <defs></defs>
  <g id="Boostrap3-Grid" stroke="none" stroke-width="1" fill="none" fill-rule="evenodd">
    <g id="Tablet-(-&gt;970px)" transform="translate(-626.000000, -3.000000)">
      <g id="lubeer_logo-copy" transform="translate(626.000000, 3.000000)">
        <polygon id="Fill-1" fill="#ffffff" points="22.2666743 60.1580463 22.2666743 56.2549732 4.53250886 56.2549732 4.53250886 16.7693499 0.196073357 16.7693499 0.196073357 60.1580463"></polygon>
        <path
          d="M23.5749818,49.8149294 C23.5749818,56.2549732 27.5877624,60.7435342 34.1248266,60.7435342 C40.5324611,60.7435342 44.7395203,56.3850846 44.7395203,49.6198027 L44.7395203,16.7693499 L40.4030848,16.7693499 L40.4030848,48.3188232 C40.4030848,52.5471614 39.496942,56.6452266 34.1248266,56.6452266 C28.752872,56.6452266 27.9114441,52.6121767 27.9114441,48.3188232 L27.9114441,16.7693499 L23.5749818,16.7693499 L23.5749818,49.8149294 Z"
          id="Fill-2"
          fill="#ffffff"></path>
        <path
          d="M48.0542047,56.2549732 L48.0542047,60.1580463 L61.9697344,60.1580463 C67.924284,60.1580463 72.8432609,56.1899578 72.8432609,47.1478743 C72.8432609,41.9439563 71.0956098,38.2359829 66.2414817,36.0893735 C69.4128076,34.3328829 70.8367769,31.2754935 70.8367769,27.6977124 C70.8367769,20.7373845 65.9824881,16.7693499 61.2576827,16.7693499 L48.0542047,16.7693499 L48.0542047,20.6722884 L51.5492658,20.6722884 L51.5492658,56.2549732 L48.0542047,56.2549732 Z M55.8857817,56.2549732 L55.8857817,38.496125 L60.6105335,38.496125 C65.1411138,38.496125 68.3126003,40.642896 68.3126003,47.0829397 C68.3126003,53.3927644 65.6589671,56.2549732 61.7755093,56.2549732 L55.8857817,56.2549732 Z M55.8857817,34.5931865 L55.8857817,20.6722884 L58.4098779,20.6722884 C63.6525366,20.6722884 66.3061699,22.3636022 66.3061699,27.6977124 C66.3061699,32.2512349 64.2349977,34.5931865 59.7690788,34.5931865 L55.8857817,34.5931865 Z"
          id="Fill-3"
          fill="#ffffff"></path>
        <path
          d="M136.33093,20.6722884 C140.990994,20.6722884 143.774164,22.9490093 143.774164,28.2940227 C143.774164,33.7800776 141.444052,36.837467 137.431217,36.9024285 L131.347292,36.9674438 L131.347292,20.6722884 L136.33093,20.6722884 Z M131.347292,40.8380227 L137.819587,40.8380227 C143.774164,40.8380227 148.304744,36.3819559 148.304744,28.2940227 C148.304744,20.8674152 144.032997,16.7693499 136.395698,16.7693499 L127.010829,16.7693499 L127.010829,60.1580463 L131.347292,60.1580463 L131.347292,40.8380227 Z"
          id="Fill-4"
          fill="#ffffff"></path>
        <path d="M149.775884,59.117155 L142.051424,43.0277334 C140.768215,43.5953455 139.340227,43.8859626 137.819587,43.8859626 L137.651264,43.8859626 L145.892426,61.0036762 L149.775884,59.117155 Z" id="Fill-5" fill="#ffffff"></path>
        <polygon
          id="Fill-6"
          fill="#ffffff"
          points="105.556038 47.4803543 105.556038 38.8865669 105.556038 34.9834669 105.556038 25.42153 105.556038 20.6722884 122.254658 20.6722884 122.254658 16.7693499 101.219576 16.7693499 101.219576 60.1580463 122.254658 60.1580463 122.254658 56.2549732 105.556038 56.2549732"></polygon>
        <path
          d="M108.213394,6.05724752 C108.460602,6.09517986 108.698944,6.15104189 108.927107,6.22300295 L109.595979,6.43430948 L110.001439,5.8517291 C110.801348,4.70239817 111.869814,3.75519356 113.115202,3.10226741 L113.116782,3.10522877 C114.31524,2.47717805 115.678914,2.12211093 117.126134,2.12211093 C118.573407,2.12211093 119.937081,2.47717805 121.135539,3.10522877 L121.137066,3.10226741 C122.382534,3.75519356 123.450919,4.70239817 124.250829,5.8517291 L124.656369,6.43430948 L125.325215,6.22300295 C125.553297,6.15104189 125.791719,6.09517986 126.038954,6.05724752 C126.277376,6.02068818 126.523673,6.00160087 126.776291,6.00160087 C128.10876,6.00160087 129.31512,6.54441825 130.188155,7.42195013 C131.061271,8.299482 131.60133,9.51191683 131.60133,10.8511517 C131.60133,11.734391 131.366417,12.562522 130.955948,13.2757522 L133.087791,13.2757522 C133.374347,12.5227051 133.531367,11.7053966 133.531367,10.8511517 C133.531367,8.97644901 132.775198,7.2790241 131.55282,6.05046332 C130.330362,4.82182177 128.64156,4.06188282 126.776291,4.06188282 C126.430216,4.06188282 126.08816,4.08861583 125.752397,4.14019734 C125.641155,4.15721171 125.530449,4.17721435 125.420439,4.19993606 C124.499483,3.04129031 123.343481,2.07989808 122.025209,1.38895884 L122.025209,1.38521675 C120.558784,0.61682447 118.892374,0.182312121 117.126134,0.182312121 C115.359867,0.182312121 113.693538,0.61682447 112.227139,1.38521675 L112.227139,1.38895884 C110.908787,2.07989808 109.752758,3.04129031 108.831909,4.19993606 C108.721873,4.17721435 108.611166,4.15721171 108.499871,4.14019734 C108.164108,4.08861583 107.822132,4.06188282 107.47603,4.06188282 C105.610762,4.06188282 103.921879,4.82182177 102.699501,6.05046332 C101.477069,7.2790241 100.720955,8.97644901 100.720955,10.8511517 C100.720955,11.7053966 100.877894,12.5227051 101.16445,13.2757522 L103.2964,13.2757522 C102.885931,12.562522 102.650911,11.734391 102.650911,10.8511517 C102.650911,9.51191683 103.190997,8.299482 104.064113,7.42195013 C104.937202,6.54441825 106.143562,6.00160087 107.47603,6.00160087 C107.728649,6.00160087 107.974972,6.02068818 108.213394,6.05724752"
          id="Fill-7"
          fill="#ffffff"></path>
        <polygon id="Fill-8" fill="#ffffff" points="93.8920036 34.9834669 83.9619596 34.9834669 83.9619596 38.8865669 93.8920036 38.8865669"></polygon>
        <polygon
          id="Fill-9"
          fill="#ffffff"
          points="80.1060109 34.9834669 80.1060109 30.5930346 80.1060109 20.6722884 96.8046305 20.6722884 96.8046305 16.7692692 75.7695487 16.7692692 75.7695487 60.1580463 96.8046305 60.1580463 96.8046305 56.2549732 80.1060109 56.2549732 80.1060109 43.3922769 80.1060109 38.8865669"></polygon>
        <polygon id="Fill-10" fill="#ffffff" points="119.34112 34.9834669 109.411076 34.9834669 109.411076 38.8865669 119.34112 38.8865669"></polygon>
      </g>
    </g>
  </g>
</svg>
